# xmcd
#
# Track frame offsets: 
#        150
#        19141
#        37111
#        59724
#        81123
#        101478
#        119290
#        142229
#        164431
#        182372
#        212056
#        236019
#        261855
#        282384
#        295055
#
# Disc length: 4457 seconds
#
# Revision: 0
# Processed by: cddbd v1.5.2PL0 Copyright (c) Steve Scherf et al.
# Submitted via: ExactAudioCopy v1.3
#
DISCID=e411670f
DTITLE=Lucky Peterson - 50 Just Warming Up!
DYEAR=2019
DGENRE=Electric Blues
TTITLE0=50 Years
TTITLE1=Pack Iit Up
TTITLE2=Dreamin' About You
TTITLE3=Don't Want Nobody But You
TTITLE4=Repossess Your Love
TTITLE5=I Will Die 4 U
TTITLE6=Never Make Your Move Too Soon
TTITLE7=Clickety Click
TTITLE8=The Blues Is Driving Me
TTITLE9=Angel Of Mercy
TTITLE10=Going Where My Roots Come From
TTITLE11=Takin Care Of Mine
TTITLE12=Let The Good Time Party Begin
TTITLE13=Kissin' On My Lips
TTITLE14=Amazing Grace Precious Lord
EXTD=
EXTT0=
EXTT1=
EXTT2=
EXTT3=
EXTT4=
EXTT5=
EXTT6=
EXTT7=
EXTT8=
EXTT9=
EXTT10=
EXTT11=
EXTT12=
EXTT13=
EXTT14=
PLAYORDER=
